<svg width="40" height="40" viewBox="0 0 40 40" fill="none" xmlns="http://www.w3.org/2000/svg">
<path fill-rule="evenodd" clip-rule="evenodd" d="M40 19.9999C40 31.046 31.0457 40 20.0001 40C8.95456 40 0 31.046 0 19.9999C0 8.95403 8.95469 0 20.0001 0C31.0456 0 40 8.95403 40 19.9999Z" fill="white"/>
<path d="M23.9688 13.9844H29.4911V15.3585H23.9688V13.9844Z" fill="black"/>
<path d="M31.6886 21.7017C31.6886 18.8333 29.4672 16.5078 26.7291 16.5078C23.9909 16.5078 21.7695 18.8333 21.7695 21.7017C21.7695 24.5701 23.8307 26.8936 26.7291 26.8936C28.9324 26.8936 30.8153 25.9241 31.4542 23.5966H29.1287C28.9152 23.995 28.5974 24.328 28.2093 24.5598C27.8212 24.7916 27.3774 24.9135 26.9254 24.9126C25.6254 24.9126 24.4817 23.9812 24.5498 22.4148H31.6505C31.6886 22.1864 31.6886 21.9501 31.6886 21.7017ZM24.5578 20.6822C24.73 19.3922 25.6414 18.5689 26.7411 18.5689C27.8408 18.5689 28.7441 19.3922 28.9244 20.6822H24.5578Z" fill="black"/>
<path d="M20.9204 21.921C20.7401 19.9299 18.4887 19.2589 18.4887 19.2589C19.344 18.8583 20.3635 18.0391 20.3535 16.2343C20.3375 13.6304 17.6214 13.1016 16.7481 13.1016H9.65527V26.6461H16.0991C16.9944 26.6461 17.9479 26.528 18.703 26.1514C20.7401 25.1499 21.0967 23.914 20.9204 21.921ZM12.6358 15.4391H15.6844C15.6844 15.4391 17.4872 15.3971 17.4872 16.9915C17.4872 18.5859 15.6844 18.5418 15.6844 18.5418H12.6358V15.4391ZM15.8647 24.3467H12.6358V20.643H15.8647C15.8647 20.643 18.012 20.5929 18.012 22.4938C18.012 24.3947 15.8647 24.3467 15.8647 24.3467Z" fill="black"/>
</svg>
