<svg width="40" height="40" viewBox="0 0 40 40" fill="none" xmlns="http://www.w3.org/2000/svg">
<path fill-rule="evenodd" clip-rule="evenodd" d="M40 19.9999C40 31.046 31.0457 40 20.0001 40C8.95456 40 0 31.046 0 19.9999C0 8.95403 8.95469 0 20.0001 0C31.0456 0 40 8.95403 40 19.9999Z" fill="white"/>
<path fill-rule="evenodd" clip-rule="evenodd" d="M11.1494 12.6273C11.1494 12.2351 11.3052 11.8589 11.5826 11.5816C11.8599 11.3042 12.236 11.1484 12.6283 11.1484H27.3701C27.5645 11.1481 27.757 11.1861 27.9367 11.2603C28.1163 11.3345 28.2796 11.4434 28.4171 11.5808C28.5546 11.7181 28.6637 11.8813 28.7381 12.0609C28.8124 12.2404 28.8507 12.4329 28.8506 12.6273V27.3691C28.8508 27.5635 28.8127 27.7561 28.7384 27.9357C28.6641 28.1154 28.5551 28.2787 28.4177 28.4162C28.2803 28.5537 28.1171 28.6627 27.9375 28.7371C27.7578 28.8115 27.5653 28.8497 27.3709 28.8496H12.6283C12.434 28.8496 12.2416 28.8113 12.0621 28.7369C11.8827 28.6626 11.7196 28.5536 11.5823 28.4162C11.4449 28.2788 11.336 28.1156 11.2618 27.9361C11.1875 27.7566 11.1493 27.5642 11.1494 27.3699V12.6273ZM18.1559 17.8974H20.5527V19.1011C20.8987 18.4091 21.7838 17.7864 23.1138 17.7864C25.6636 17.7864 26.2678 19.1646 26.2678 21.6935V26.3779H23.6875V22.2696C23.6875 20.8294 23.3415 20.0167 22.4629 20.0167C21.2439 20.0167 20.737 20.8929 20.737 22.2696V26.3779H18.1559V17.8974ZM13.7306 26.2676H16.3117V17.7864H13.7306V26.2668V26.2676ZM16.681 15.0202C16.6859 15.2412 16.6466 15.4609 16.5654 15.6665C16.4841 15.8721 16.3627 16.0594 16.2081 16.2174C16.0535 16.3755 15.8689 16.501 15.6652 16.5867C15.4614 16.6724 15.2426 16.7166 15.0215 16.7166C14.8005 16.7166 14.5817 16.6724 14.3779 16.5867C14.1741 16.501 13.9896 16.3755 13.835 16.2174C13.6804 16.0594 13.5589 15.8721 13.4777 15.6665C13.3965 15.4609 13.3572 15.2412 13.3621 15.0202C13.3716 14.5864 13.5506 14.1736 13.8608 13.8701C14.171 13.5667 14.5876 13.3968 15.0215 13.3968C15.4554 13.3968 15.8721 13.5667 16.1823 13.8701C16.4924 14.1736 16.6715 14.5864 16.681 15.0202Z" fill="black"/>
</svg>
