<svg width="40" height="40" viewBox="0 0 40 40" fill="none" xmlns="http://www.w3.org/2000/svg">
<path fill-rule="evenodd" clip-rule="evenodd" d="M40 19.9999C40 31.046 31.0457 40 20.0001 40C8.95456 40 0 31.046 0 19.9999C0 8.95403 8.95469 0 20.0001 0C31.0456 0 40 8.95403 40 19.9999Z" fill="white"/>
<path d="M15.5855 28.8332C23.5291 28.8332 27.8728 22.2527 27.8728 16.5466C27.8728 16.3594 27.8688 16.1734 27.8603 15.9881C28.7036 15.3787 29.4366 14.618 30.0146 13.7521C29.2406 14.096 28.4077 14.3278 27.5346 14.4318C28.4259 13.8973 29.1109 13.0518 29.4335 12.0428C28.5987 12.5377 27.6754 12.8974 26.6913 13.0913C25.9034 12.252 24.7813 11.7266 23.5393 11.7266C21.1543 11.7266 19.2205 13.6609 19.2205 16.0448C19.2205 16.3836 19.2581 16.7139 19.3325 17.0297C15.7431 16.849 12.5608 15.1305 10.4312 12.5178C10.0599 13.1558 9.84604 13.8972 9.84604 14.6879C9.84604 16.1867 10.6085 17.5091 11.7679 18.2827C11.0597 18.2613 10.394 18.0662 9.81176 17.7426C9.81123 17.7606 9.81123 17.7786 9.81123 17.7978C9.81123 19.8896 11.2996 21.6352 13.2757 22.0314C12.9129 22.1298 12.5315 22.183 12.1372 22.183C11.859 22.183 11.5885 22.1559 11.3256 22.1054C11.8754 23.8215 13.4691 25.0694 15.3597 25.1047C13.8815 26.2631 12.0196 26.9536 9.99631 26.9536C9.64793 26.9536 9.30426 26.9332 8.96582 26.8934C10.8771 28.1187 13.1464 28.8332 15.5855 28.8332Z" fill="black"/>
</svg>
